<svg xmlns="http://www.w3.org/2000/svg" xmlns:xlink="http://www.w3.org/1999/xlink" width="32" height="32" viewBox="0 0 32 32">
  <defs>
    <clipPath id="clip-path">
      <rect id="Rectángulo_2185" data-name="Rectángulo 2185" width="32" height="32" fill="#fff"/>
    </clipPath>
  </defs>
  <g id="Grupo_8089" data-name="Grupo 8089" transform="translate(4.642 2.254)">
    <g id="Grupo_8094" data-name="Grupo 8094" transform="translate(-4.642 -2.254)" clip-path="url(#clip-path)">
      <path id="Trazado_11873" data-name="Trazado 11873" d="M32,19.234V12.766H27.288a11.587,11.587,0,0,0-.986-2.443l3.352-3.352L25.029,2.346,21.677,5.7a13.242,13.242,0,0,0-2.443-.982V0H12.766V4.627a11.432,11.432,0,0,0-2.442.987L6.971,2.262,2.346,6.887,5.7,10.24a13.259,13.259,0,0,0-.982,2.442H0V19.15H4.627a11.482,11.482,0,0,0,.987,2.443L2.262,24.945,6.887,29.57l3.353-3.353a13.212,13.212,0,0,0,2.442.982V32H19.15V27.288a11.476,11.476,0,0,0,2.443-.986l3.352,3.352,4.625-4.625-3.353-3.352a13.242,13.242,0,0,0,.982-2.443Zm-5.531-.522a12.3,12.3,0,0,1-1.137,2.841l-.151.275,3.2,3.2-3.438,3.438-3.2-3.2-.275.15a10.817,10.817,0,0,1-2.833,1.135l-.326.076V31.16H13.522V26.548l-.318-.079a12.276,12.276,0,0,1-2.84-1.137l-.276-.151-3.2,3.2L3.449,24.945l3.2-3.2-.15-.275a10.763,10.763,0,0,1-1.136-2.834l-.076-.325H.84V13.522H5.368l.079-.318a12.288,12.288,0,0,1,1.137-2.841l.15-.275-3.2-3.2L6.971,3.449l3.2,3.2.275-.15A10.793,10.793,0,0,1,13.28,5.364l.326-.076V.84h4.787V5.368l.318.079a12.311,12.311,0,0,1,2.841,1.137l.275.15,3.2-3.2,3.438,3.438-3.2,3.2.15.275a10.788,10.788,0,0,1,1.135,2.833l.076.326H31.16v4.787H26.548ZM15.958,10.079a5.879,5.879,0,1,0,5.879,5.879,5.886,5.886,0,0,0-5.879-5.879m0,10.919A5.039,5.039,0,1,1,21,15.958,5.044,5.044,0,0,1,15.958,21" transform="translate(0 0)" fill="#fff"/>
    </g>
  </g>
</svg>
