<svg xmlns="http://www.w3.org/2000/svg" width="36.921" height="31.455" viewBox="0 0 36.921 31.455">
  <path id="Trazado_4" data-name="Trazado 4" d="M20.8,25.208H10.652m12.483-2.455h0L32.289,20s4.132-.929,4.132,1.363c0,1.943-1.852,2.7-3.127,3.281C28.726,26.732,21.8,30,21.8,30a21.055,21.055,0,0,1-7.162,1.454H.5V23.646c3.822,0,2.782.356,6.114-1.362a15.568,15.568,0,0,1,6.814-1.762H20.8a2.343,2.343,0,0,1,0,4.685M27.05,18.18a8.59,8.59,0,1,0-8.59-8.59A8.59,8.59,0,0,0,27.05,18.18Z" transform="translate(0 -0.5)" fill="none" stroke="#fff" stroke-width="1" fill-rule="evenodd"/>
</svg>
