<svg xmlns="http://www.w3.org/2000/svg" width="31.763" height="32.958" viewBox="0 0 31.763 32.958">
  <g id="calendar-events-small" transform="translate(0 0.5)">
    <path id="Trazado_6" data-name="Trazado 6" d="M7.642,26.9v4.168a1.313,1.313,0,0,0,1.389,1.389H29.874a1.313,1.313,0,0,0,1.389-1.389V8.142M.695,3.974V25.511A1.392,1.392,0,0,0,2.084,26.9H18.758l6.947-6.947V3.974m0,15.979H18.758V26.9M0,.5H26.4" transform="translate(0 -0.5)" fill="none" stroke="#fff" stroke-width="1" fill-rule="evenodd"/>
    <path id="Trazado_7" data-name="Trazado 7" d="M4,6.095,6.524,5.4h.721v8.059H9.409v1.112H4V13.459H6.164V6.651L4,7.206V6.095Zm6.852,8.059V13.042a16.6,16.6,0,0,0,2.765.556c1.683,0,2.4-.695,2.4-1.667,0-1.667-3.246-1.945-4.928-1.945l.24-4.585h5.409V6.512H12.294l-.12,2.5c2.284.139,4.928.695,4.928,2.918,0,1.528-1.082,2.779-3.606,2.779a8.258,8.258,0,0,1-2.645-.556Z" transform="translate(2.558 1.408)" fill="#fff"/>
  </g>
</svg>
