<svg xmlns="http://www.w3.org/2000/svg" width="36.397" height="36.571" viewBox="0 0 36.397 36.571">
  <path id="bxl-whatsapp" d="M34.094,8.315A18.127,18.127,0,0,0,5.57,30.182L3,39.571l9.607-2.521a18.13,18.13,0,0,0,8.66,2.206h.008A18.128,18.128,0,0,0,34.094,8.315M21.275,36.2h-.006A15.031,15.031,0,0,1,13.6,34.1l-.549-.327-5.7,1.5,1.52-5.557-.357-.569A15.062,15.062,0,1,1,21.275,36.2m8.262-11.282c-.454-.228-2.679-1.322-3.095-1.474s-.715-.226-1.017.226-1.171,1.472-1.435,1.774-.529.339-.981.113a12.369,12.369,0,0,1-3.642-2.247,13.64,13.64,0,0,1-2.519-3.137c-.264-.454-.028-.7.2-.925.2-.2.452-.529.678-.793a3.1,3.1,0,0,0,.452-.755.827.827,0,0,0-.038-.793c-.113-.228-1.019-2.457-1.4-3.363-.365-.878-.739-.761-1.017-.773-.262-.012-.565-.016-.866-.016a1.668,1.668,0,0,0-1.209.565,5.076,5.076,0,0,0-1.585,3.777,8.819,8.819,0,0,0,1.849,4.685c.226.3,3.194,4.875,7.736,6.837a26.781,26.781,0,0,0,2.582.955,6.221,6.221,0,0,0,2.852.18c.87-.129,2.679-1.094,3.056-2.152a3.789,3.789,0,0,0,.264-2.154c-.113-.19-.418-.3-.868-.531" transform="translate(-3 -3)" fill="#fff" fill-rule="evenodd"/>
</svg>
