<svg xmlns="http://www.w3.org/2000/svg" width="37.004" height="30.693" viewBox="0 0 37.004 30.693">
  <path id="used-car-search-small" d="M6.558,17.768a20.783,20.783,0,0,0-2.692.654,5.138,5.138,0,0,0-3.208,2.57A9.648,9.648,0,0,0,.5,23.562v.286A1.749,1.749,0,0,0,2.066,25.49l2.347.032a3.5,3.5,0,0,0,3.489,3.5h.032a3.527,3.527,0,0,0,3.521-3.534h0l6.121.014m6.38.015,1.584,0a3.5,3.5,0,0,0,3.489,3.5h.064a3.5,3.5,0,0,0,3.489-3.5l2.368-.408a1.684,1.684,0,0,0,1.544-1.827l-.313-4.138a2.376,2.376,0,0,0-1.8-2.056c-.605-.155-1.055-.283-1.661-.385-1.707-.286-5.122-2.57-7.4-3.427a4.645,4.645,0,0,0-.452-.142m-5.624-.426a15.18,15.18,0,0,0-4.736.568,10.888,10.888,0,0,0-2.292,1.653M23.818,33.5l-6.26-14.921ZM22.41,11.353a7.541,7.541,0,0,1-7.2,7.853h-.469a7.853,7.853,0,0,1,0-15.707,7.73,7.73,0,0,1,7.668,7.853Z" transform="translate(0.001 -3)" fill="none" stroke="#fff" stroke-width="1" fill-rule="evenodd"/>
</svg>
